<?xml version="1.0" standalone="no"?>
<!DOCTYPE svg PUBLIC "-//W3C//DTD SVG 20010904//EN"
 "http://www.w3.org/TR/2001/REC-SVG-20010904/DTD/svg10.dtd">
<svg version="1.0" xmlns="http://www.w3.org/2000/svg"
 width="48.000000" height="72.000000" viewBox="0 0 48.000000 72.000000"
 preserveAspectRatio="xMidYMid meet">

<g transform="translate(0.000000,72.000000) scale(0.100000,-0.100000)"
fill="#000000" stroke="none">
<path d="M1096 2934 l-859 -429 7 -694 c7 -802 1 -752 102 -817 61 -39 995
-516 1364 -697 194 -94 232 -110 277 -111 62 -1 89 20 103 80 5 21 10 308 10
637 0 644 2 624 -52 675 -14 12 -103 62 -199 111 -137 71 -170 91 -154 97 46
17 318 144 340 158 14 9 33 28 42 43 17 25 18 74 21 638 2 335 -1 628 -5 649
-10 47 -44 75 -99 83 -36 5 -107 -29 -898 -423z m59 -981 c479 -240 831 -423
845 -438 l25 -27 3 -394 c2 -259 0 -394 -7 -394 -6 0 -268 210 -583 466 -315
257 -696 566 -845 688 l-273 221 0 148 c0 82 3 147 8 145 4 -1 376 -188 827
-415z"/>
</g>
</svg>
