<?xml version="1.0" standalone="no"?>
<!DOCTYPE svg PUBLIC "-//W3C//DTD SVG 20010904//EN"
 "http://www.w3.org/TR/2001/REC-SVG-20010904/DTD/svg10.dtd">
<svg version="1.0" xmlns="http://www.w3.org/2000/svg"
 width="824.000000pt" height="303.000000pt" viewBox="0 0 824.000000 303.000000"
 preserveAspectRatio="xMidYMid meet">

<g transform="translate(0.000000,303.000000) scale(0.100000,-0.100000)"
fill="#000000" stroke="none">
<path d="M913 2482 l-713 -357 0 -588 c0 -631 0 -627 51 -673 13 -12 329 -175
703 -363 491 -247 687 -341 712 -341 23 0 44 9 66 29 l33 29 3 519 3 518 -23
45 c-22 43 -32 49 -182 126 -87 45 -155 84 -150 87 5 2 68 31 139 62 72 32
142 66 156 76 58 41 59 52 59 605 0 352 -3 512 -11 527 -19 37 -52 57 -94 56
-32 0 -175 -68 -752 -357z m-138 -729 c918 -462 902 -453 914 -479 12 -27 17
-674 5 -674 -4 0 -38 26 -77 58 -38 31 -98 80 -132 107 -35 28 -325 263 -644
524 l-581 474 0 123 0 123 28 -12 c15 -7 234 -116 487 -244z"/>
<path d="M3931 1998 c-58 -30 -82 -64 -83 -116 -1 -92 37 -129 162 -158 87
-19 110 -29 110 -49 0 -20 -32 -35 -74 -35 -25 0 -45 9 -68 29 l-33 29 -58
-22 -57 -21 18 -35 c58 -108 248 -130 342 -41 37 35 40 42 40 93 0 90 -34 121
-174 157 -93 23 -107 34 -83 59 28 27 104 23 128 -7 l19 -23 50 18 c27 10 50
22 50 27 0 24 -44 77 -78 93 -20 10 -66 20 -102 22 -53 3 -73 -1 -109 -20z"/>
<path d="M4610 2007 c-54 -17 -133 -102 -149 -160 -29 -103 8 -215 90 -275
173 -128 418 11 396 225 -17 160 -177 260 -337 210z m133 -111 c52 -21 87 -70
87 -119 0 -132 -157 -185 -239 -81 -26 33 -28 104 -3 146 16 28 79 67 110 68
7 0 27 -6 45 -14z"/>
<path d="M5870 1999 c-97 -44 -144 -117 -144 -224 -1 -106 43 -178 138 -228
54 -28 154 -30 209 -3 45 22 111 81 104 93 -3 4 -25 19 -49 32 l-44 23 -38
-26 c-47 -31 -98 -34 -143 -6 -96 58 -76 204 34 241 39 13 87 0 122 -32 22
-21 23 -21 62 -4 62 28 67 41 33 77 -69 74 -193 99 -284 57z"/>
<path d="M7638 2013 l-48 -4 0 -44 0 -44 63 -3 62 -3 3 -192 2 -193 55 0 55 0
2 193 3 192 63 3 62 3 0 49 0 50 -137 -2 c-76 -1 -159 -3 -185 -5z"/>
<path d="M2200 1852 c0 -149 1 -161 25 -209 66 -131 235 -159 339 -56 57 55
66 92 66 266 l0 157 -55 0 -55 0 0 -139 c0 -77 -4 -151 -9 -164 -16 -42 -51
-67 -94 -67 -91 0 -107 33 -107 225 l0 145 -55 0 -55 0 0 -158z"/>
<path d="M2860 1770 l0 -240 55 0 55 0 0 141 c0 83 4 138 9 134 5 -3 45 -66
88 -140 l78 -135 73 0 72 0 0 240 0 241 -57 -3 -58 -3 -1 -133 c-1 -73 -4
-135 -6 -138 -3 -3 -43 58 -88 136 l-82 140 -69 0 -69 0 0 -240z"/>
<path d="M3500 1770 l0 -240 60 0 60 0 0 240 0 240 -60 0 -60 0 0 -240z"/>
<path d="M5170 1770 l0 -240 165 0 165 0 0 50 0 50 -105 0 -105 0 0 190 0 190
-60 0 -60 0 0 -240z"/>
<path d="M6410 1770 l0 -240 176 0 175 0 -3 48 -3 47 -115 5 -115 5 -3 43 -3
42 95 0 96 0 0 50 0 49 -92 3 -93 3 -3 42 -3 42 118 3 118 3 3 48 3 47 -175 0
-176 0 0 -240z"/>
<path d="M6980 1770 l0 -240 55 0 55 0 0 80 c0 78 1 80 24 80 19 0 34 -16 75
-80 l51 -80 65 0 c36 0 65 3 65 8 0 4 -23 43 -50 86 l-50 80 25 16 c101 66 91
220 -17 276 -19 10 -66 14 -163 14 l-135 0 0 -240z m254 124 c21 -20 20 -68 0
-85 -10 -9 -41 -14 -78 -14 l-61 0 -3 58 -3 57 65 0 c45 0 69 -5 80 -16z"/>
<path d="M2453 1190 c-38 -23 -55 -51 -56 -96 -2 -68 46 -114 121 -114 44 0
101 35 83 53 -6 6 -19 2 -37 -12 -79 -62 -184 38 -128 124 29 44 115 54 139
16 10 -16 35 -13 29 3 -7 18 -65 46 -96 46 -12 0 -37 -9 -55 -20z"/>
<path d="M2737 1203 c-4 -3 -7 -55 -7 -115 l0 -108 80 0 c47 0 80 4 80 10 0 6
-28 10 -64 10 l-64 0 -4 35 c-2 20 -2 38 1 40 2 3 28 5 58 5 29 0 53 5 53 10
0 6 -25 10 -55 10 -37 0 -55 4 -56 13 -9 68 0 77 72 77 33 0 59 4 59 10 0 11
-142 14 -153 3z"/>
<path d="M3020 1096 c0 -71 4 -116 10 -116 6 0 10 20 10 45 0 76 57 75 102 0
15 -25 34 -45 43 -45 13 0 11 7 -10 37 -31 46 -31 46 0 77 30 30 32 56 7 86
-15 18 -31 23 -90 28 l-72 5 0 -117z m125 84 c22 -8 26 -15 23 -42 -3 -33 -3
-33 -65 -36 l-63 -3 0 39 c0 21 3 42 7 45 10 10 68 8 98 -3z"/>
<path d="M3325 1201 c-3 -6 12 -11 32 -13 l38 -3 3 -102 c2 -81 6 -103 17
-103 11 0 15 22 17 103 l3 102 38 3 c20 2 37 7 37 13 0 12 -177 12 -185 0z"/>
<path d="M3636 1203 c-3 -3 -6 -55 -6 -115 0 -89 3 -108 15 -108 12 0 15 19
15 109 0 100 -6 131 -24 114z"/>
<path d="M3787 1203 c-4 -3 -7 -55 -7 -115 0 -89 3 -108 15 -108 11 0 15 12
15 50 l0 50 55 0 c70 0 72 18 3 22 l-53 3 0 40 0 40 68 3 c40 2 65 7 62 12 -7
11 -148 14 -158 3z"/>
<path d="M4080 1199 c0 -5 18 -37 40 -69 32 -47 40 -68 40 -104 0 -34 4 -46
15 -46 11 0 15 12 15 45 0 34 8 58 35 100 43 66 51 85 36 85 -6 0 -27 -25 -47
-55 -20 -30 -38 -55 -41 -55 -2 0 -17 22 -33 49 -29 46 -60 73 -60 50z"/>
<path d="M4560 1199 c0 -5 18 -37 40 -69 32 -47 40 -68 40 -104 0 -34 4 -46
15 -46 11 0 15 12 15 45 0 34 8 58 35 100 43 66 51 85 36 85 -6 0 -27 -25 -47
-55 -20 -30 -38 -55 -40 -55 -2 0 -19 25 -39 55 -32 51 -55 69 -55 44z"/>
<path d="M4942 1193 c-103 -51 -66 -213 49 -213 78 0 119 41 119 118 0 44 -20
76 -60 97 -37 19 -67 19 -108 -2z m87 -14 c63 -22 80 -102 32 -150 -33 -32
-67 -37 -110 -14 -42 21 -56 69 -34 114 10 20 29 41 43 48 31 16 30 16 69 2z"/>
<path d="M5244 1196 c-3 -9 -4 -50 -2 -92 3 -69 6 -79 31 -100 42 -36 98 -33
131 7 23 27 26 39 26 109 0 108 -16 110 -22 3 -4 -74 -8 -89 -27 -105 -30 -24
-66 -23 -91 2 -17 17 -20 33 -20 99 0 75 -13 112 -26 77z"/>
<path d="M5558 1204 c-5 -4 -8 -56 -8 -116 0 -87 3 -108 14 -108 11 0 16 14
18 48 3 43 5 47 30 50 23 3 32 -5 60 -47 18 -28 39 -51 46 -51 17 0 16 5 -12
49 l-25 39 25 23 c30 28 31 69 3 95 -21 19 -137 33 -151 18z m137 -34 c18 -15
19 -44 2 -58 -6 -6 -35 -12 -62 -14 l-50 -3 -3 33 c-6 56 2 65 53 60 25 -3 52
-11 60 -18z"/>
<path d="M6020 1095 l0 -115 55 0 c71 0 112 21 132 67 37 91 -29 163 -149 163
l-38 0 0 -115z m115 81 c99 -42 60 -182 -49 -174 l-41 3 -3 79 c-2 44 -1 85 2
93 7 17 48 17 91 -1z"/>
<path d="M6340 1095 l0 -115 80 0 c97 0 107 18 13 22 l-68 3 -3 38 -3 37 55 0
c74 0 82 18 9 22 l-58 3 0 40 0 40 68 3 c91 4 76 22 -19 22 l-74 0 0 -115z"/>
<path d="M6691 1198 c-58 -31 -82 -106 -51 -163 28 -52 111 -72 159 -38 22 15
25 15 36 0 20 -28 25 -20 25 43 l0 60 -55 0 c-30 0 -55 -4 -55 -10 0 -5 15
-10 34 -10 48 0 53 -15 17 -50 -40 -40 -82 -40 -122 -1 -48 48 -35 118 29 150
27 14 75 6 93 -15 6 -8 19 -14 27 -14 13 0 10 6 -9 26 -31 30 -93 41 -128 22z"/>
<path d="M6990 1095 c0 -66 4 -115 9 -115 6 0 11 21 13 48 3 44 5 47 32 47 23
1 36 -8 63 -47 19 -26 39 -48 44 -48 13 0 11 7 -13 51 l-23 40 21 17 c28 22
36 47 24 76 -11 29 -56 46 -121 46 l-49 0 0 -115z m142 73 c26 -41 -15 -76
-81 -70 -40 4 -41 5 -41 41 0 21 3 41 7 44 11 11 106 -2 115 -15z"/>
<path d="M7290 1095 l0 -115 80 0 c97 0 107 18 13 22 l-68 3 -3 38 -3 37 60 0
c77 0 80 18 4 22 l-58 3 0 40 0 40 68 3 c91 4 76 22 -19 22 l-74 0 0 -115z"/>
<path d="M7578 1111 c-4 -140 -10 -131 83 -131 46 0 79 4 79 10 0 6 -30 10
-70 10 l-70 0 0 40 0 40 54 0 c75 0 82 18 9 22 l-58 3 0 40 0 40 68 3 c91 4
77 22 -18 22 l-74 0 -3 -99z"/>
</g>
</svg>
